<svg width="60" height="61" viewBox="0 0 60 61" fill="none" xmlns="http://www.w3.org/2000/svg">
<path d="M52.26 42.0938H7.49226C6.66811 42.0938 6 42.7619 6 43.586V52.5396C6 53.3637 6.66811 54.0318 7.49226 54.0318H52.26C53.0842 54.0318 53.7523 53.3637 53.7523 52.5396V43.586C53.7523 42.7619 53.0842 42.0938 52.26 42.0938Z" fill="#00A82D"/>
<path d="M19.4302 45.8242C19.4302 45.4122 19.7643 45.0781 20.1764 45.0781H45.5448C45.9569 45.0781 46.2909 45.4122 46.2909 45.8242C46.2909 46.2363 45.9569 46.5704 45.5448 46.5704H20.1764C19.7643 46.5704 19.4302 46.2363 19.4302 45.8242Z" fill="white"/>
<path d="M19.4302 48.8086C19.4302 48.3965 19.7643 48.0625 20.1764 48.0625H30.6222C31.0343 48.0625 31.3683 48.3965 31.3683 48.8086C31.3683 49.2207 31.0343 49.5547 30.6222 49.5547H20.1764C19.7643 49.5547 19.4302 49.2207 19.4302 48.8086Z" fill="white"/>
<path fill-rule="evenodd" clip-rule="evenodd" d="M8.98438 48.0588C8.98438 50.1191 10.6546 51.7894 12.715 51.7894C14.7753 51.7894 16.4456 50.1191 16.4456 48.0588C16.4456 45.9984 14.7753 44.3281 12.715 44.3281C10.6546 44.3281 8.98438 45.9984 8.98438 48.0588ZM14.5193 46.7829C14.6516 46.8924 14.6701 47.0884 14.5606 47.2207L12.6135 49.5732C12.5595 49.6384 12.4813 49.6788 12.3969 49.685C12.3125 49.6912 12.2292 49.6628 12.1662 49.6063L11.0564 48.6094C10.9287 48.4947 10.9182 48.2981 11.0329 48.1704C11.1476 48.0427 11.3442 48.0321 11.4719 48.1468L12.3409 48.9274L14.0816 46.8242C14.1911 46.6919 14.3871 46.6735 14.5193 46.7829Z" fill="white"/>
<path d="M52.26 25.6797H7.49226C6.66811 25.6797 6 26.3478 6 27.1719V36.1255C6 36.9497 6.66811 37.6178 7.49226 37.6178H52.26C53.0842 37.6178 53.7523 36.9497 53.7523 36.1255V27.1719C53.7523 26.3478 53.0842 25.6797 52.26 25.6797Z" fill="#CEDC00"/>
<path d="M19.4302 29.4102C19.4302 28.9981 19.7643 28.6641 20.1764 28.6641H45.5448C45.9569 28.6641 46.2909 28.9981 46.2909 29.4102C46.2909 29.8223 45.9569 30.1563 45.5448 30.1563H20.1764C19.7643 30.1563 19.4302 29.8223 19.4302 29.4102Z" fill="white"/>
<path d="M19.4302 32.3945C19.4302 31.9825 19.7643 31.6484 20.1764 31.6484H30.6222C31.0343 31.6484 31.3683 31.9825 31.3683 32.3945C31.3683 32.8066 31.0343 33.1407 30.6222 33.1407H20.1764C19.7643 33.1407 19.4302 32.8066 19.4302 32.3945Z" fill="white"/>
<path fill-rule="evenodd" clip-rule="evenodd" d="M8.98438 31.6447C8.98438 33.7051 10.6546 35.3754 12.715 35.3754C14.7753 35.3754 16.4456 33.7051 16.4456 31.6447C16.4456 29.5844 14.7753 27.9141 12.715 27.9141C10.6546 27.9141 8.98438 29.5844 8.98438 31.6447ZM14.5193 30.3689C14.6516 30.4784 14.6701 30.6743 14.5606 30.8066L12.6135 33.1591C12.5595 33.2243 12.4813 33.2647 12.3969 33.271C12.3125 33.2772 12.2292 33.2488 12.1662 33.1922L11.0564 32.1954C10.9287 32.0806 10.9182 31.8841 11.0329 31.7563C11.1476 31.6286 11.3442 31.6181 11.4719 31.7328L12.3409 32.5133L14.0816 30.4102C14.1911 30.2779 14.3871 30.2594 14.5193 30.3689Z" fill="white"/>
<path d="M52.26 9.26562H7.49226C6.66811 9.26562 6 9.93373 6 10.7579V19.7115C6 20.5356 6.66811 21.2037 7.49226 21.2037H52.26C53.0842 21.2037 53.7523 20.5356 53.7523 19.7115V10.7579C53.7523 9.93373 53.0842 9.26562 52.26 9.26562Z" fill="#262626"/>
<path d="M19.4304 12.9961C19.4304 12.584 19.7644 12.25 20.1765 12.25H45.5449C45.957 12.25 46.291 12.584 46.291 12.9961C46.291 13.4082 45.957 13.7422 45.5449 13.7422H20.1765C19.7644 13.7422 19.4304 13.4082 19.4304 12.9961Z" fill="white"/>
<path d="M19.4304 15.9806C19.4304 15.5685 19.7644 15.2344 20.1765 15.2344H30.6223C31.0344 15.2344 31.3684 15.5685 31.3684 15.9806C31.3684 16.3926 31.0344 16.7267 30.6223 16.7267H20.1765C19.7644 16.7267 19.4304 16.3926 19.4304 15.9806Z" fill="white"/>
<path fill-rule="evenodd" clip-rule="evenodd" d="M8.98462 15.2306C8.98462 17.291 10.6549 18.9613 12.7152 18.9613C14.7756 18.9613 16.4459 17.291 16.4459 15.2306C16.4459 13.1703 14.7756 11.5 12.7152 11.5C10.6549 11.5 8.98462 13.1703 8.98462 15.2306ZM14.5196 13.9548C14.6519 14.0643 14.6704 14.2603 14.5609 14.3925L12.6137 16.7451C12.5598 16.8103 12.4816 16.8506 12.3972 16.8569C12.3128 16.8631 12.2295 16.8347 12.1665 16.7781L11.0567 15.7813C10.929 15.6666 10.9184 15.47 11.0332 15.3423C11.1479 15.2145 11.3445 15.204 11.4722 15.3187L12.3411 16.0992L14.0819 13.9961C14.1914 13.8638 14.3873 13.8453 14.5196 13.9548Z" fill="white"/>
</svg>
