<svg xmlns:xlink="http://www.w3.org/1999/xlink" width="48" height="48" viewBox="0 0 48 48" fill="none" xmlns="http://www.w3.org/2000/svg" class="h-full w-full p-0.5"><path d="M4.91259 4.91259C6.12939 3.6958 8.10051 3.6958 9.3173 4.91259L24 19.5953L38.6827 4.91259C39.8995 3.6958 41.8706 3.6958 43.0874 4.91259C44.3042 6.12939 44.3042 8.10051 43.0874 9.3173L28.4047 24L43.0874 38.6827C44.3042 39.8995 44.3042 41.8706 43.0874 43.0874C41.8706 44.3042 39.8995 44.3042 38.6827 43.0874L24 28.4047L9.3173 43.0874C8.10051 44.3042 6.12939 44.3042 4.91259 43.0874C3.6958 41.8706 3.6958 39.8995 4.91259 38.6827L19.5953 24L4.91259 9.3173C3.6958 8.10051 3.6958 6.12939 4.91259 4.91259Z" fill="currentColor"></path></svg>