<svg xmlns:xlink="http://www.w3.org/1999/xlink" width="28" height="22" viewBox="0 0 28 22" fill="none" xmlns="http://www.w3.org/2000/svg"><path d="M17.4234 13.5358C17.4234 9.86488 18.3049 6.99092 20.0679 4.91392C21.8551 2.83693 24.3547 1.47239 27.5669 0.820312V4.58788C25.1275 5.33657 23.4853 6.68903 22.6401 8.64527C22.157 9.68377 21.9638 10.686 22.0604 11.6521H27.748V21.1797H17.4234V13.5358ZM0.251953 13.5358C0.251953 9.91323 1.10932 7.0513 2.82405 4.95015C4.56292 2.84901 7.08671 1.47239 10.3954 0.820312V4.58788C7.932 5.36072 6.27765 6.68903 5.43236 8.57281C4.99765 9.56305 4.81651 10.5894 4.88896 11.6521H10.5765V21.1797H0.251953V13.5358Z" fill="#00A82D"></path></svg>