<svg xmlns:xlink="http://www.w3.org/1999/xlink" width="20" height="20" viewBox="0 0 20 20" fill="none" xmlns="http://www.w3.org/2000/svg"><path d="M20 9.8564C20 12.5058 19.556 14.6549 19.0081 14.6549C18.4602 14.6549 18.0163 12.5064 18.0163 9.8564C18.0163 7.2064 18.4604 5.05786 19.0081 5.05786C19.5558 5.05786 20 7.2062 20 9.8564Z" fill="currentColor"></path><path d="M17.469 9.85646C17.469 12.8142 16.2063 15.2129 14.6487 15.2129C13.091 15.2129 11.8283 12.8142 11.8283 9.85646C11.8283 6.8987 13.0908 4.5 14.6485 4.5C16.2061 4.5 17.4688 6.89793 17.4688 9.85646" fill="currentColor"></path><path d="M11.2812 9.8565C11.2812 12.9988 8.75579 15.5461 5.6407 15.5461C2.52561 15.5461 0 12.9982 0 9.8565C0 6.71481 2.52542 4.16675 5.6407 4.16675C8.75598 4.16675 11.2812 6.71423 11.2812 9.8565Z" fill="currentColor"></path></svg>